# xmcd
# 
# Track frame offsets:
#     150
#     24368
#     42373
#     61210
# 
# Disc length: 1236
# 
# Revision: 17
# Processed by: cddbd v1.5.2PL0 Copyright (c) Steve Scherf et al.
# Submitted via: fre:ac v1.0.31
# 
DISCID=2904d204
DTITLE=The Chemical Brothers - Setting Sun (Single)
DYEAR=1996
DGENRE=Electronic
TTITLE0=Setting Sun (Full Length Version)
TTITLE1=Setting Sun (Radio Edit)
TTITLE2=Buzz Tracks
TTITLE3=Setting Sun (Instrumental)
EXTD=
EXTT0=
EXTT1=
EXTT2=
EXTT3=
PLAYORDER=
